<svg xmlns="http://www.w3.org/2000/svg" viewBox="0 0 964.12 308"><defs><linearGradient id="a" y2="359.95" gradientUnits="userSpaceOnUse" x2="16" gradientTransform="matrix(.98305 0 0 1.0175 .271 -1.901)" y1="297.05" x1="16"><stop offset="0"/><stop offset="1" stop-opacity="0"/></linearGradient></defs><g transform="translate(2.096 -90.375)" stroke-width="4" fill="none"><rect ry="16.281" height="272" width="928" y="108.36" x="16" stroke="url(#a)"/><rect ry="0" transform="translate(0 92.362)" height="16" width="400" y="32" x="32" stroke-linejoin="round" stroke="#000" stroke-linecap="round"/><rect ry="8" transform="translate(0 92.362)" height="16" width="16" y="32" x="912" stroke-linejoin="round" stroke="#000" stroke-linecap="round"/><rect ry="8" height="16" width="16" y="124.36" x="888" stroke-linejoin="round" stroke="#000" stroke-linecap="round"/><rect ry="8" height="16" width="16" y="124.36" x="865" stroke-linejoin="round" stroke="#000" stroke-linecap="round"/><path d="M16 156.362h928M64 236.36l-16-16 16-16v8h16v16H64zM96 220.36l16-16 16 16h-4v16h-8v-10h-8v10h-8v-16zM160 236.36l16-16-16-16v8h-16v16h16zM208 204.36c-8.837 0-16 7.163-16 16h-4l8 12 8-12h-4a8 8 0 0 1 8-8v-8zM208 236.36c8.837 0 16-7.163 16-16h4l-8-12-8 12h4a8 8 0 0 1-8 8v8zM256 204.36h384v32H256zM736 204.36h192v32H736z" stroke-linejoin="round" stroke="#000" stroke-linecap="round"/><path stroke-linejoin="round" stroke="#000" stroke-linecap="round" d="M896 204.36h32v32h-32zM656 204.36h32v32h-32zM688 204.36h32v32h-32zM32 188.36h896M32 164.36h64v16H32zM112 164.36h64v16h-64zM192 164.36h64v16h-64zM272 164.36h64v16h-64zM16 252.362h928M64 268.36h80v16H64zM32 268.36h16v16H32zM208 268.36h80v16h-80zM176 268.36h16v16h-16zM352 268.36h80v16h-80zM320 268.36h16v16h-16zM496 268.36h80v16h-80zM464 268.36h16v16h-16zM640 268.36h80v16h-80zM608 268.36h16v16h-16zM16 300.36h928"/></g></svg>