<svg xmlns="http://www.w3.org/2000/svg" viewBox="0 0 512 512"><path d="M304.48 209.76h60.912v15.648H304.48z"/><g fill="#f60"><path d="M426.352 209.76h60.912v15.648h-60.912zM60.912 209.76h182.72v15.648H60.912z"/></g><path d="M182.72 171.472h121.808v15.648H182.72z"/><g fill="#f60"><path d="M365.44 171.472h60.912v15.648H365.44zM60.912 133.12h60.912v15.648H60.912z"/></g><path d="M182.72 133.12h60.912v15.648H182.72z"/><path fill="#f60" d="M304.48 133.12h60.912v15.648H304.48z"/><path d="M426.352 133.12h60.912v15.648h-60.912z"/><path fill="#f60" d="M0 248.176h60.912v15.648H0z"/><path d="M121.808 248.176h121.808v15.648H121.808zM365.44 248.176h121.808v15.648H365.44zM207.472 324.88h60.912v15.648h-60.912z"/><g fill="#f60"><path d="M85.648 324.88h60.912v15.648H85.648zM329.28 324.88H512v15.648H329.28z"/></g><path d="M268.368 286.528h121.808v15.648H268.368zM24.736 286.528h60.912v15.648H24.736z"/><path fill="#f60" d="M146.56 286.528h60.912v15.648H146.56z"/><path d="M329.28 363.232h121.808v15.648H329.28zM85.648 363.232h121.808v15.648H85.648z"/></svg>