<?xml version="1.0" encoding="UTF-8" standalone="no"?>
<!DOCTYPE svg PUBLIC "-//W3C//DTD SVG 1.1//EN"
 "http://www.w3.org/Graphics/SVG/1.1/DTD/svg11.dtd">
<!-- Generated by graphviz version 2.40.1 (20161225.0304)
 -->
<!-- Title: G Pages: 1 -->
<svg width="916pt" height="363pt"
 viewBox="0.00 0.00 915.93 363.00" xmlns="http://www.w3.org/2000/svg" xmlns:xlink="http://www.w3.org/1999/xlink">
<g id="graph0" class="graph" transform="scale(1 1) rotate(0) translate(4 359)">
<title>G</title>
<polygon fill="#ffffff" stroke="transparent" points="-4,4 -4,-359 911.927,-359 911.927,4 -4,4"/>
<!-- A0 -->
<g id="node1" class="node">
<title>A0</title>
<g transform="translate(281.6185,-316)" style="fill:none;stroke:black;stroke-width:1px"><circle cx="0" cy="-20" r="7.5" />
                <line x1="0" y1="-12.5" x2="0" y2="5" />
                <line x1="-15" y1="-5" x2="15" y2="-5" />
                <line x1="0" y1="5" x2="-15" y2="17" />
                <line x1="0" y1="5" x2="15" y2="17" /></g>
<text text-anchor="middle" x="281.6185" y="-291" font-family="Helvetica,sans-Serif" font-size="10.00" fill="#000000">Usuario</text>
</g>
<!-- A1 -->
<g id="node2" class="node">
<title>A1</title>
<ellipse fill="none" stroke="#000000" cx="63.6185" cy="-116" rx="63.7373" ry="18"/>
<text text-anchor="middle" x="63.6185" y="-113" font-family="Helvetica,sans-Serif" font-size="10.00" fill="#000000">Realizar una kata</text>
</g>
<!-- A0&#45;&gt;A1 -->
<g id="edge1" class="edge">
<title>A0&#45;&gt;A1</title>
<path fill="none" stroke="#000000" d="M234.9885,-314.0069C185.2787,-305.9712 108.6056,-285.2109 70.6185,-232 49.8696,-202.9357 54.4663,-158.6089 59.2792,-134.0188"/>
</g>
<!-- A2 -->
<g id="node3" class="node">
<title>A2</title>
<ellipse fill="none" stroke="#000000" cx="150.6185" cy="-214" rx="70.7569" ry="18"/>
<text text-anchor="middle" x="150.6185" y="-211" font-family="Helvetica,sans-Serif" font-size="10.00" fill="#000000">Realizar un módulo</text>
</g>
<!-- A0&#45;&gt;A2 -->
<g id="edge2" class="edge">
<title>A0&#45;&gt;A2</title>
<path fill="none" stroke="#000000" d="M236.5358,-282.865C214.7765,-265.4244 189.6772,-245.3065 172.2482,-231.3368"/>
</g>
<!-- A3 -->
<g id="node4" class="node">
<title>A3</title>
<ellipse fill="none" stroke="#000000" cx="163.6185" cy="-18" rx="68.7797" ry="18"/>
<text text-anchor="middle" x="163.6185" y="-15" font-family="Helvetica,sans-Serif" font-size="10.00" fill="#000000">Acceder a una kata</text>
</g>
<!-- A0&#45;&gt;A3 -->
<g id="edge3" class="edge">
<title>A0&#45;&gt;A3</title>
<path fill="none" stroke="#000000" d="M274.796,-282.9397C265.5147,-238.1421 246.662,-160.0435 217.6185,-98 206.8911,-75.0837 190.0312,-51.3682 178.0055,-35.7693"/>
</g>
<!-- A4 -->
<g id="node5" class="node">
<title>A4</title>
<ellipse fill="none" stroke="#000000" cx="350.6185" cy="-214" rx="72.9363" ry="18"/>
<text text-anchor="middle" x="350.6185" y="-211" font-family="Helvetica,sans-Serif" font-size="10.00" fill="#000000">Cambiar contraseña</text>
</g>
<!-- A0&#45;&gt;A4 -->
<g id="edge4" class="edge">
<title>A0&#45;&gt;A4</title>
<path fill="none" stroke="#000000" d="M305.3644,-282.865C316.6695,-265.6616 329.6863,-245.8535 338.8489,-231.9104"/>
</g>
<!-- A5 -->
<g id="node6" class="node">
<title>A5</title>
<ellipse fill="none" stroke="#000000" cx="585.6185" cy="-116" rx="53.8524" ry="18"/>
<text text-anchor="middle" x="585.6185" y="-113" font-family="Helvetica,sans-Serif" font-size="10.00" fill="#000000">Identificación</text>
</g>
<!-- A0&#45;&gt;A5 -->
<g id="edge5" class="edge">
<title>A0&#45;&gt;A5</title>
<path fill="none" stroke="#000000" d="M328.3029,-295.7825C359.0737,-279.6075 399.628,-256.5907 432.6185,-232 451.2713,-218.0965 452.574,-210.6843 470.6185,-196 500.0464,-172.052 536.3129,-147.5836 560.1558,-132.1218"/>
</g>
<!-- A6 -->
<g id="node7" class="node">
<title>A6</title>
<ellipse fill="none" stroke="#000000" cx="518.6185" cy="-214" rx="39.4434" ry="18"/>
<text text-anchor="middle" x="518.6185" y="-211" font-family="Helvetica,sans-Serif" font-size="10.00" fill="#000000">Registro</text>
</g>
<!-- A0&#45;&gt;A6 -->
<g id="edge6" class="edge">
<title>A0&#45;&gt;A6</title>
<path fill="none" stroke="#000000" d="M328.2001,-308.6877C366.6317,-298.9995 421.7696,-282.3261 465.6185,-258 479.0042,-250.574 492.2542,-239.574 502.1578,-230.4305"/>
</g>
<!-- A1&#45;&gt;A3 -->
<g id="edge11" class="edge">
<title>A1&#45;&gt;A3</title>
<path fill="none" stroke="#000000" stroke-dasharray="5,2" d="M70.9805,-97.918C76.3086,-86.4001 84.3618,-71.6897 94.5885,-61 102.5098,-52.7201 112.3462,-45.3685 122.0874,-39.1887"/>
<polygon fill="#000000" stroke="#000000" points="130.9489,-33.8498 124.7057,-42.8649 126.6662,-36.4301 122.3834,-39.0104 122.3834,-39.0104 122.3834,-39.0104 126.6662,-36.4301 120.0611,-35.1559 130.9489,-33.8498 130.9489,-33.8498"/>
<text text-anchor="middle" x="122.1335" y="-64" font-family="Helvetica,sans-Serif" font-size="10.00" fill="#000000">&lt;&lt;include&gt;&gt;</text>
</g>
<!-- A2&#45;&gt;A1 -->
<g id="edge15" class="edge">
<title>A2&#45;&gt;A1</title>
<path fill="none" stroke="#000000" stroke-dasharray="5,2" d="M124.2241,-197.1242C114.1754,-189.8782 103.1054,-180.8184 94.5885,-171 87.372,-162.6807 81.0486,-152.4168 76.0292,-143.0174"/>
<polygon fill="#000000" stroke="#000000" points="71.4597,-134.0101 79.9971,-140.8923 73.7219,-138.4692 75.984,-142.9282 75.984,-142.9282 75.984,-142.9282 73.7219,-138.4692 71.9709,-144.9641 71.4597,-134.0101 71.4597,-134.0101"/>
<text text-anchor="middle" x="122.1335" y="-162" font-family="Helvetica,sans-Serif" font-size="10.00" fill="#000000">&lt;&lt;include&gt;&gt;</text>
</g>
<!-- A2&#45;&gt;A3 -->
<g id="edge12" class="edge">
<title>A2&#45;&gt;A3</title>
<path fill="none" stroke="#000000" stroke-dasharray="5,2" d="M151.8182,-195.9121C154.0916,-161.6363 159.0416,-87.006 161.7522,-46.1384"/>
<polygon fill="#000000" stroke="#000000" points="162.4217,-36.0442 166.25,-46.3201 162.0908,-41.0332 161.7598,-46.0222 161.7598,-46.0222 161.7598,-46.0222 162.0908,-41.0332 157.2697,-45.7244 162.4217,-36.0442 162.4217,-36.0442"/>
<text text-anchor="middle" x="186.1335" y="-113" font-family="Helvetica,sans-Serif" font-size="10.00" fill="#000000">&lt;&lt;include&gt;&gt;</text>
</g>
<!-- A4&#45;&gt;A5 -->
<g id="edge10" class="edge">
<title>A4&#45;&gt;A5</title>
<path fill="none" stroke="#000000" stroke-dasharray="5,2" d="M356.6466,-195.94C361.6755,-183.6647 370.0625,-168.0656 382.5885,-159 404.9582,-142.8101 473.3278,-130.5919 524.5922,-123.3935"/>
<polygon fill="#000000" stroke="#000000" points="534.5983,-122.0211 525.3026,-127.8383 529.6447,-122.7006 524.691,-123.38 524.691,-123.38 524.691,-123.38 529.6447,-122.7006 524.0795,-118.9218 534.5983,-122.0211 534.5983,-122.0211"/>
<text text-anchor="middle" x="410.1335" y="-162" font-family="Helvetica,sans-Serif" font-size="10.00" fill="#000000">&lt;&lt;include&gt;&gt;</text>
</g>
<!-- A7 -->
<g id="node8" class="node">
<title>A7</title>
<g transform="translate(677.6185,-316)" style="fill:none;stroke:black;stroke-width:1px"><circle cx="0" cy="-20" r="7.5" />
                <line x1="0" y1="-12.5" x2="0" y2="5" />
                <line x1="-15" y1="-5" x2="15" y2="-5" />
                <line x1="0" y1="5" x2="-15" y2="17" />
                <line x1="0" y1="5" x2="15" y2="17" /></g>
<text text-anchor="middle" x="677.6185" y="-291" font-family="Helvetica,sans-Serif" font-size="10.00" fill="#000000">Administrador</text>
</g>
<!-- A7&#45;&gt;A5 -->
<g id="edge7" class="edge">
<title>A7&#45;&gt;A5</title>
<path fill="none" stroke="#000000" d="M639.6378,-282.6967C626.5605,-268.1463 613.0889,-250.4577 604.6185,-232 589.8084,-199.7274 586.3533,-157.7362 585.6593,-134.1468"/>
</g>
<!-- A8 -->
<g id="node9" class="node">
<title>A8</title>
<ellipse fill="none" stroke="#000000" cx="677.6185" cy="-214" rx="63.9118" ry="18"/>
<text text-anchor="middle" x="677.6185" y="-211" font-family="Helvetica,sans-Serif" font-size="10.00" fill="#000000">Gestión de katas</text>
</g>
<!-- A7&#45;&gt;A8 -->
<g id="edge8" class="edge">
<title>A7&#45;&gt;A8</title>
<path fill="none" stroke="#000000" d="M677.6185,-282.865C677.6185,-265.7803 677.6185,-246.1266 677.6185,-232.1997"/>
</g>
<!-- A9 -->
<g id="node10" class="node">
<title>A9</title>
<ellipse fill="none" stroke="#000000" cx="833.6185" cy="-214" rx="74.1175" ry="18"/>
<text text-anchor="middle" x="833.6185" y="-211" font-family="Helvetica,sans-Serif" font-size="10.00" fill="#000000">Gestión de módulos</text>
</g>
<!-- A7&#45;&gt;A9 -->
<g id="edge9" class="edge">
<title>A7&#45;&gt;A9</title>
<path fill="none" stroke="#000000" d="M731.3049,-282.865C757.3929,-265.3057 787.5128,-245.0327 808.2833,-231.0525"/>
</g>
<!-- A8&#45;&gt;A5 -->
<g id="edge13" class="edge">
<title>A8&#45;&gt;A5</title>
<path fill="none" stroke="#000000" stroke-dasharray="5,2" d="M661.1708,-196.4796C646.649,-181.0108 625.3132,-158.2835 609.0151,-140.9225"/>
<polygon fill="#000000" stroke="#000000" points="601.9239,-133.3688 612.0491,-137.5795 605.3461,-137.0141 608.7683,-140.6595 608.7683,-140.6595 608.7683,-140.6595 605.3461,-137.0141 605.4874,-143.7395 601.9239,-133.3688 601.9239,-133.3688"/>
<text text-anchor="middle" x="665.1335" y="-162" font-family="Helvetica,sans-Serif" font-size="10.00" fill="#000000">&lt;&lt;include&gt;&gt;</text>
</g>
<!-- A9&#45;&gt;A5 -->
<g id="edge14" class="edge">
<title>A9&#45;&gt;A5</title>
<path fill="none" stroke="#000000" stroke-dasharray="5,2" d="M795.2837,-198.4651C767.8415,-187.3798 729.9979,-172.1651 696.6185,-159 674.9754,-150.4638 650.9017,-141.1197 630.7208,-133.329"/>
<polygon fill="#000000" stroke="#000000" points="621.1542,-129.6396 632.1036,-129.0393 625.8193,-131.4387 630.4844,-133.2379 630.4844,-133.2379 630.4844,-133.2379 625.8193,-131.4387 628.8652,-137.4365 621.1542,-129.6396 621.1542,-129.6396"/>
<text text-anchor="middle" x="754.1335" y="-162" font-family="Helvetica,sans-Serif" font-size="10.00" fill="#000000">&lt;&lt;include&gt;&gt;</text>
</g>
</g>
</svg>
