<?xml version="1.0" encoding="UTF-8" standalone="no"?>
<!DOCTYPE svg PUBLIC "-//W3C//DTD SVG 1.1//EN"
 "http://www.w3.org/Graphics/SVG/1.1/DTD/svg11.dtd">
<!-- Generated by graphviz version 2.40.1 (20161225.0304)
 -->
<!-- Title: G Pages: 1 -->
<svg width="722pt" height="344pt"
 viewBox="0.00 0.00 722.07 344.00" xmlns="http://www.w3.org/2000/svg" xmlns:xlink="http://www.w3.org/1999/xlink">
<g id="graph0" class="graph" transform="scale(1 1) rotate(0) translate(4 340)">
<title>G</title>
<polygon fill="#ffffff" stroke="transparent" points="-4,4 -4,-340 718.0735,-340 718.0735,4 -4,4"/>
<!-- A0 -->
<g id="node1" class="node">
<title>A0</title>
<polygon fill="none" stroke="#000000" points="280,-292 280,-336 389,-336 389,-292 280,-292"/>
<text text-anchor="start" x="289.7535" y="-317" font-family="Helvetica,sans-Serif" font-size="10.00" fill="#000000">&lt;&lt;aggregateRoot&gt;&gt;</text>
<text text-anchor="start" x="324.217" y="-305" font-family="Helvetica,sans-Serif" font-size="10.00" fill="#000000">Kata</text>
<polygon fill="none" stroke="#000000" points="280,-224 280,-292 389,-292 389,-224 280,-224"/>
<text text-anchor="start" x="323.6615" y="-273" font-family="Helvetica,sans-Serif" font-size="10.00" fill="#000000">code</text>
<text text-anchor="start" x="320.053" y="-261" font-family="Helvetica,sans-Serif" font-size="10.00" fill="#000000">details</text>
<text text-anchor="start" x="317.2735" y="-249" font-family="Helvetica,sans-Serif" font-size="10.00" fill="#000000">solution</text>
<text text-anchor="start" x="323.9415" y="-237" font-family="Helvetica,sans-Serif" font-size="10.00" fill="#000000">tests</text>
</g>
<!-- A1 -->
<g id="node2" class="node">
<title>A1</title>
<polygon fill="none" stroke="#000000" points="130,-124 130,-168 226,-168 226,-124 130,-124"/>
<text text-anchor="start" x="139.9265" y="-149" font-family="Helvetica,sans-Serif" font-size="10.00" fill="#000000">&lt;&lt;valueObject&gt;&gt;</text>
<text text-anchor="start" x="169.3865" y="-137" font-family="Helvetica,sans-Serif" font-size="10.00" fill="#000000">Tag</text>
<polygon fill="none" stroke="#000000" points="130,-92 130,-124 226,-124 226,-92 130,-92"/>
<text text-anchor="start" x="165.497" y="-105" font-family="Helvetica,sans-Serif" font-size="10.00" fill="#000000">name</text>
</g>
<!-- A0&#45;&gt;A1 -->
<g id="edge1" class="edge">
<title>A0&#45;&gt;A1</title>
<path fill="none" stroke="#000000" d="M279.4388,-227.5373C261.6026,-210.3871 241.9638,-191.5036 224.7556,-174.9573"/>
<polygon fill="#000000" stroke="#000000" points="217.5418,-168.021 227.8692,-171.7083 221.146,-171.4865 224.7502,-174.9521 224.7502,-174.9521 224.7502,-174.9521 221.146,-171.4865 221.6312,-178.1959 217.5418,-168.021 217.5418,-168.021"/>
<text text-anchor="middle" x="236.4662" y="-171.4916" font-family="Helvetica,sans-Serif" font-size="10.00" fill="#000000">*</text>
</g>
<!-- A2 -->
<g id="node3" class="node">
<title>A2</title>
<polygon fill="none" stroke="#000000" points="470.1471,-148 365.8529,-148 365.8529,-112 470.1471,-112 470.1471,-148"/>
<text text-anchor="middle" x="418" y="-133" font-family="Helvetica,sans-Serif" font-size="10.00" fill="#000000">&lt;&lt;valueObject&gt;&gt;</text>
<text text-anchor="middle" x="418" y="-121" font-family="Helvetica,sans-Serif" font-size="10.00" fill="#000000">ModuleId</text>
</g>
<!-- A0&#45;&gt;A2 -->
<g id="edge2" class="edge">
<title>A0&#45;&gt;A2</title>
<path fill="none" stroke="#000000" d="M365.5175,-223.7188C378.3411,-200.8194 392.5576,-175.4329 402.9563,-156.8638"/>
<polygon fill="#000000" stroke="#000000" points="407.8748,-148.0807 406.915,-159.0045 405.4318,-152.4432 402.9887,-156.8058 402.9887,-156.8058 402.9887,-156.8058 405.4318,-152.4432 399.0625,-154.607 407.8748,-148.0807 407.8748,-148.0807"/>
</g>
<!-- A3 -->
<g id="node4" class="node">
<title>A3</title>
<polygon fill="none" stroke="#000000" points="236.994,-298 119.006,-298 119.006,-262 236.994,-262 236.994,-298"/>
<text text-anchor="middle" x="178" y="-283" font-family="Helvetica,sans-Serif" font-size="10.00" fill="#000000">&lt;&lt;aggregateRoot&gt;&gt;</text>
<text text-anchor="middle" x="178" y="-271" font-family="Helvetica,sans-Serif" font-size="10.00" fill="#000000">Module</text>
</g>
<!-- A3&#45;&gt;A1 -->
<g id="edge5" class="edge">
<title>A3&#45;&gt;A1</title>
<path fill="none" stroke="#000000" d="M178,-261.9065C178,-241.2952 178,-206.7739 178,-178.2165"/>
<polygon fill="#000000" stroke="#000000" points="178,-168.002 182.5001,-178.002 178,-173.002 178.0001,-178.002 178.0001,-178.002 178.0001,-178.002 178,-173.002 173.5001,-178.0021 178,-168.002 178,-168.002"/>
<text text-anchor="middle" x="186.4524" y="-183.1282" font-family="Helvetica,sans-Serif" font-size="10.00" fill="#000000">*</text>
</g>
<!-- A4 -->
<g id="node5" class="node">
<title>A4</title>
<polygon fill="none" stroke="#000000" points="0,-130 0,-174 112,-174 112,-130 0,-130"/>
<text text-anchor="start" x="32.3745" y="-155" font-family="Helvetica,sans-Serif" font-size="10.00" fill="#000000">&lt;&lt;entity&gt;&gt;</text>
<text text-anchor="start" x="9.6085" y="-143" font-family="Helvetica,sans-Serif" font-size="10.00" fill="#000000">MultipleChoiceQuery</text>
<polygon fill="none" stroke="#000000" points="0,-86 0,-130 112,-130 112,-86 0,-86"/>
<text text-anchor="start" x="41.553" y="-111" font-family="Helvetica,sans-Serif" font-size="10.00" fill="#000000">details</text>
<text text-anchor="start" x="38.7735" y="-99" font-family="Helvetica,sans-Serif" font-size="10.00" fill="#000000">solution</text>
</g>
<!-- A3&#45;&gt;A4 -->
<g id="edge3" class="edge">
<title>A3&#45;&gt;A4</title>
<path fill="none" stroke="#000000" d="M163.2839,-261.9065C147.3061,-242.2616 121.0508,-209.9805 98.5135,-182.2707"/>
<polygon fill="#000000" stroke="#000000" points="91.9615,-174.215 101.7625,-179.1336 95.1165,-178.094 98.2714,-181.973 98.2714,-181.973 98.2714,-181.973 95.1165,-178.094 94.7803,-184.8124 91.9615,-174.215 91.9615,-174.215"/>
<text text-anchor="middle" x="109.9561" y="-179.9439" font-family="Helvetica,sans-Serif" font-size="10.00" fill="#000000">*</text>
</g>
<!-- A6 -->
<g id="node7" class="node">
<title>A6</title>
<polygon fill="none" stroke="#000000" points="348.1471,-148 243.8529,-148 243.8529,-112 348.1471,-112 348.1471,-148"/>
<text text-anchor="middle" x="296" y="-133" font-family="Helvetica,sans-Serif" font-size="10.00" fill="#000000">&lt;&lt;valueObject&gt;&gt;</text>
<text text-anchor="middle" x="296" y="-121" font-family="Helvetica,sans-Serif" font-size="10.00" fill="#000000">KataId</text>
</g>
<!-- A3&#45;&gt;A6 -->
<g id="edge4" class="edge">
<title>A3&#45;&gt;A6</title>
<path fill="none" stroke="#000000" d="M192.2336,-261.9065C212.9646,-235.5535 251.5842,-186.4608 275.4141,-156.1686"/>
<polygon fill="#000000" stroke="#000000" points="281.716,-148.1577 279.0699,-158.7995 278.6245,-152.0875 275.5331,-156.0172 275.5331,-156.0172 275.5331,-156.0172 278.6245,-152.0875 271.9963,-153.2349 281.716,-148.1577 281.716,-148.1577"/>
<text text-anchor="middle" x="277.152" y="-164.63" font-family="Helvetica,sans-Serif" font-size="10.00" fill="#000000">*</text>
</g>
<!-- A5 -->
<g id="node6" class="node">
<title>A5</title>
<polygon fill="none" stroke="#000000" points="108.1471,-36 3.8529,-36 3.8529,0 108.1471,0 108.1471,-36"/>
<text text-anchor="middle" x="56" y="-21" font-family="Helvetica,sans-Serif" font-size="10.00" fill="#000000">&lt;&lt;valueObject&gt;&gt;</text>
<text text-anchor="middle" x="56" y="-9" font-family="Helvetica,sans-Serif" font-size="10.00" fill="#000000">Choice</text>
</g>
<!-- A4&#45;&gt;A5 -->
<g id="edge6" class="edge">
<title>A4&#45;&gt;A5</title>
<path fill="none" stroke="#000000" d="M56,-85.7346C56,-72.4396 56,-58.2205 56,-46.2602"/>
<polygon fill="#000000" stroke="#000000" points="56,-36.0025 60.5001,-46.0025 56,-41.0025 56.0001,-46.0025 56.0001,-46.0025 56.0001,-46.0025 56,-41.0025 51.5001,-46.0026 56,-36.0025 56,-36.0025"/>
<text text-anchor="middle" x="64.4524" y="-51.1287" font-family="Helvetica,sans-Serif" font-size="10.00" fill="#000000">2..*</text>
</g>
<!-- A7 -->
<g id="node8" class="node">
<title>A7</title>
<polygon fill="none" stroke="#000000" points="592,-292 592,-336 701,-336 701,-292 592,-292"/>
<text text-anchor="start" x="601.7535" y="-317" font-family="Helvetica,sans-Serif" font-size="10.00" fill="#000000">&lt;&lt;aggregateRoot&gt;&gt;</text>
<text text-anchor="start" x="635.9465" y="-305" font-family="Helvetica,sans-Serif" font-size="10.00" fill="#000000">User</text>
<polygon fill="none" stroke="#000000" points="592,-224 592,-292 701,-292 701,-224 592,-224"/>
<text text-anchor="start" x="624.2735" y="-273" font-family="Helvetica,sans-Serif" font-size="10.00" fill="#000000">username</text>
<text text-anchor="start" x="634.5575" y="-261" font-family="Helvetica,sans-Serif" font-size="10.00" fill="#000000">email</text>
<text text-anchor="start" x="625.108" y="-249" font-family="Helvetica,sans-Serif" font-size="10.00" fill="#000000">password</text>
<text text-anchor="start" x="638.167" y="-237" font-family="Helvetica,sans-Serif" font-size="10.00" fill="#000000">role</text>
</g>
<!-- A8 -->
<g id="node9" class="node">
<title>A8</title>
<polygon fill="none" stroke="#000000" points="573.994,-298 456.006,-298 456.006,-262 573.994,-262 573.994,-298"/>
<text text-anchor="middle" x="515" y="-283" font-family="Helvetica,sans-Serif" font-size="10.00" fill="#000000">&lt;&lt;aggregateRoot&gt;&gt;</text>
<text text-anchor="middle" x="515" y="-271" font-family="Helvetica,sans-Serif" font-size="10.00" fill="#000000">Training</text>
</g>
<!-- A8&#45;&gt;A2 -->
<g id="edge10" class="edge">
<title>A8&#45;&gt;A2</title>
<path fill="none" stroke="#000000" d="M503.2995,-261.9065C486.3307,-235.6661 454.7824,-186.88 435.1741,-156.558"/>
<polygon fill="#000000" stroke="#000000" points="429.742,-148.1577 438.9509,-154.1113 432.4571,-152.3563 435.1722,-156.5549 435.1722,-156.5549 435.1722,-156.5549 432.4571,-152.3563 431.3935,-158.9985 429.742,-148.1577 429.742,-148.1577"/>
<text text-anchor="middle" x="446.6824" y="-155.7888" font-family="Helvetica,sans-Serif" font-size="10.00" fill="#000000">0..1</text>
</g>
<!-- A8&#45;&gt;A6 -->
<g id="edge9" class="edge">
<title>A8&#45;&gt;A6</title>
<path fill="none" stroke="#000000" d="M487.4066,-261.8971C455.7214,-241.0152 402.2805,-205.5062 357,-174 347.9027,-167.6701 338.1325,-160.7009 329.1356,-154.2122"/>
<polygon fill="#000000" stroke="#000000" points="320.7939,-148.1748 331.5332,-150.3925 324.8443,-151.1064 328.8948,-154.0379 328.8948,-154.0379 328.8948,-154.0379 324.8443,-151.1064 326.2564,-157.6833 320.7939,-148.1748 320.7939,-148.1748"/>
<text text-anchor="middle" x="340.4334" y="-148.9551" font-family="Helvetica,sans-Serif" font-size="10.00" fill="#000000">0..1</text>
</g>
<!-- A9 -->
<g id="node10" class="node">
<title>A9</title>
<polygon fill="none" stroke="#000000" points="592.1471,-148 487.8529,-148 487.8529,-112 592.1471,-112 592.1471,-148"/>
<text text-anchor="middle" x="540" y="-133" font-family="Helvetica,sans-Serif" font-size="10.00" fill="#000000">&lt;&lt;valueObject&gt;&gt;</text>
<text text-anchor="middle" x="540" y="-121" font-family="Helvetica,sans-Serif" font-size="10.00" fill="#000000">Solution</text>
</g>
<!-- A8&#45;&gt;A9 -->
<g id="edge7" class="edge">
<title>A8&#45;&gt;A9</title>
<path fill="none" stroke="#000000" d="M518.0156,-261.9065C522.3139,-236.1166 530.2419,-188.5484 535.3107,-158.1357"/>
<polygon fill="#000000" stroke="#000000" points="536.9737,-148.1577 539.7684,-158.7614 536.1517,-153.0896 535.3296,-158.0216 535.3296,-158.0216 535.3296,-158.0216 536.1517,-153.0896 530.8909,-157.2818 536.9737,-148.1577 536.9737,-148.1577"/>
<text text-anchor="middle" x="542.3312" y="-164.4268" font-family="Helvetica,sans-Serif" font-size="10.00" fill="#000000">1..*</text>
</g>
<!-- A10 -->
<g id="node11" class="node">
<title>A10</title>
<polygon fill="none" stroke="#000000" points="714.1471,-148 609.8529,-148 609.8529,-112 714.1471,-112 714.1471,-148"/>
<text text-anchor="middle" x="662" y="-133" font-family="Helvetica,sans-Serif" font-size="10.00" fill="#000000">&lt;&lt;valueObject&gt;&gt;</text>
<text text-anchor="middle" x="662" y="-121" font-family="Helvetica,sans-Serif" font-size="10.00" fill="#000000">UserId</text>
</g>
<!-- A8&#45;&gt;A10 -->
<g id="edge8" class="edge">
<title>A8&#45;&gt;A10</title>
<path fill="none" stroke="#000000" d="M532.7316,-261.9065C558.7784,-235.3282 607.4925,-185.6199 637.1119,-155.396"/>
<polygon fill="#000000" stroke="#000000" points="644.2055,-148.1577 640.4201,-158.4495 640.7058,-151.7288 637.2062,-155.2998 637.2062,-155.2998 637.2062,-155.2998 640.7058,-151.7288 633.9922,-152.1501 644.2055,-148.1577 644.2055,-148.1577"/>
<text text-anchor="middle" x="637.5553" y="-164.0197" font-family="Helvetica,sans-Serif" font-size="10.00" fill="#000000">1</text>
</g>
</g>
</svg>
