<?xml version="1.0" encoding="UTF-8" standalone="no"?>
<!DOCTYPE svg PUBLIC "-//W3C//DTD SVG 1.1//EN"
 "http://www.w3.org/Graphics/SVG/1.1/DTD/svg11.dtd">
<!-- Generated by graphviz version 2.40.1 (20161225.0304)
 -->
<!-- Title: G Pages: 1 -->
<svg width="308pt" height="418pt"
 viewBox="0.00 0.00 308.06 418.00" xmlns="http://www.w3.org/2000/svg" xmlns:xlink="http://www.w3.org/1999/xlink">
<g id="graph0" class="graph" transform="scale(1 1) rotate(0) translate(4 414)">
<title>G</title>
<polygon fill="#ffffff" stroke="transparent" points="-4,4 -4,-414 304.0615,-414 304.0615,4 -4,4"/>
<!-- A0 -->
<g id="node1" class="node">
<title>A0</title>
<polygon fill="none" stroke="#000000" points="104,-378 104,-410 166,-410 166,-378 104,-378"/>
<text text-anchor="start" x="124.4465" y="-391" font-family="Helvetica,sans-Serif" font-size="10.00" fill="#000000">User</text>
<polygon fill="none" stroke="#000000" points="104,-346 104,-378 166,-378 166,-346 104,-346"/>
<text text-anchor="start" x="123.0575" y="-359" font-family="Helvetica,sans-Serif" font-size="10.00" fill="#000000">email</text>
<polygon fill="none" stroke="#000000" points="104,-314 104,-346 166,-346 166,-314 104,-314"/>
<text text-anchor="start" x="113.608" y="-327" font-family="Helvetica,sans-Serif" font-size="10.00" fill="#000000">password</text>
</g>
<!-- A0JA1 -->
<!-- A0&#45;&gt;A0JA1 -->
<g id="edge2" class="edge">
<title>A0&#45;&gt;A0JA1</title>
<path fill="none" stroke="#000000" d="M135,-303.5693C135,-276.7314 135,-250.0164 135,-246.4114"/>
<polygon fill="#000000" stroke="#000000" points="135,-313.8133 130.5001,-303.8133 135,-308.8133 135.0001,-303.8133 135.0001,-303.8133 135.0001,-303.8133 135,-308.8133 139.5001,-303.8134 135,-313.8133 135,-313.8133"/>
<text text-anchor="middle" x="126.5476" y="-292.6872" font-family="Helvetica,sans-Serif" font-size="10.00" fill="#000000">*</text>
</g>
<!-- A1 -->
<g id="node2" class="node">
<title>A1</title>
<polygon fill="none" stroke="#000000" points="103,-146 103,-178 168,-178 168,-146 103,-146"/>
<text text-anchor="start" x="112.9945" y="-159" font-family="Helvetica,sans-Serif" font-size="10.00" fill="#000000">Challenge</text>
<polygon fill="none" stroke="#000000" points="103,-114 103,-146 168,-146 168,-114 103,-114"/>
<text text-anchor="start" x="123.5535" y="-127" font-family="Helvetica,sans-Serif" font-size="10.00" fill="#000000">id: int</text>
</g>
<!-- A2 -->
<g id="node3" class="node">
<title>A2</title>
<polygon fill="none" stroke="#000000" points="294.1231,-164 185.8769,-164 185.8769,-128 300.1231,-128 300.1231,-158 294.1231,-164"/>
<polyline fill="none" stroke="#000000" points="294.1231,-164 294.1231,-158 "/>
<polyline fill="none" stroke="#000000" points="300.1231,-158 294.1231,-158 "/>
<text text-anchor="middle" x="243" y="-143" font-family="Helvetica,sans-Serif" font-size="10.00" fill="#000000">Patrón: Composite</text>
</g>
<!-- A1&#45;&gt;A2 -->
<g id="edge1" class="edge">
<title>A1&#45;&gt;A2</title>
<path fill="none" stroke="#000000" stroke-dasharray="5,2" d="M167.9063,-146C173.8707,-146 179.8352,-146 185.7997,-146"/>
</g>
<!-- A3 -->
<g id="node4" class="node">
<title>A3</title>
<polygon fill="none" stroke="#000000" points="6,-32 6,-64 49,-64 49,-32 6,-32"/>
<text text-anchor="start" x="17.217" y="-45" font-family="Helvetica,sans-Serif" font-size="10.00" fill="#000000">Kata</text>
<polygon fill="none" stroke="#000000" points="6,0 6,-32 49,-32 49,0 6,0"/>
<text text-anchor="start" x="15.5535" y="-13" font-family="Helvetica,sans-Serif" font-size="10.00" fill="#000000">id: int</text>
</g>
<!-- A1&#45;&gt;A3 -->
<g id="edge5" class="edge">
<title>A1&#45;&gt;A3</title>
<path fill="none" stroke="#000000" d="M97.3719,-106.2814C83.1583,-91.2782 67.2733,-74.5107 54.1974,-60.7084"/>
<polygon fill="none" stroke="#000000" points="95.2103,-109.0888 104.6286,-113.9413 100.2919,-104.2746 95.2103,-109.0888"/>
</g>
<!-- A4 -->
<g id="node5" class="node">
<title>A4</title>
<polygon fill="none" stroke="#000000" points="78,-32 78,-64 121,-64 121,-32 78,-32"/>
<text text-anchor="start" x="90.056" y="-45" font-family="Helvetica,sans-Serif" font-size="10.00" fill="#000000">Mcq</text>
<polygon fill="none" stroke="#000000" points="78,0 78,-32 121,-32 121,0 78,0"/>
<text text-anchor="start" x="87.5535" y="-13" font-family="Helvetica,sans-Serif" font-size="10.00" fill="#000000">id: int</text>
</g>
<!-- A1&#45;&gt;A4 -->
<g id="edge7" class="edge">
<title>A1&#45;&gt;A4</title>
<path fill="none" stroke="#000000" d="M121.7812,-104.1404C117.6188,-90.9596 113.0887,-76.6144 109.1726,-64.2131"/>
<polygon fill="none" stroke="#000000" points="118.5273,-105.4594 124.8762,-113.9413 125.2023,-103.3515 118.5273,-105.4594"/>
</g>
<!-- A5 -->
<g id="node6" class="node">
<title>A5</title>
<polygon fill="none" stroke="#000000" points="145,-32 145,-64 197,-64 197,-32 145,-32"/>
<text text-anchor="start" x="154.608" y="-45" font-family="Helvetica,sans-Serif" font-size="10.00" fill="#000000">Module</text>
<polygon fill="none" stroke="#000000" points="145,0 145,-32 197,-32 197,0 145,0"/>
<text text-anchor="start" x="159.0535" y="-13" font-family="Helvetica,sans-Serif" font-size="10.00" fill="#000000">id: int</text>
</g>
<!-- A1&#45;&gt;A5 -->
<g id="edge6" class="edge">
<title>A1&#45;&gt;A5</title>
<path fill="none" stroke="#000000" d="M141.6851,-104.1404C145.4626,-90.9596 150.1215,-76.6144 154.6801,-64.2131"/>
<polygon fill="none" stroke="#000000" points="138.2668,-103.3708 138.9845,-113.9413 145.0153,-105.2304 138.2668,-103.3708"/>
</g>
<!-- A5&#45;&gt;A1 -->
<g id="edge8" class="edge">
<title>A5&#45;&gt;A1</title>
<path fill="none" stroke="#000000" d="M163.6961,-76.0021C161.0055,-85.2479 157.9143,-94.9756 154.7526,-104.1404"/>
<polygon fill="#000000" stroke="#000000" points="163.7594,-75.7743 161.5134,-68.9219 166.9748,-64.2131 169.2208,-71.0655 163.7594,-75.7743"/>
<polygon fill="#000000" stroke="#000000" points="151.2631,-113.9413 150.378,-103.0112 152.9402,-109.2309 154.6173,-104.5205 154.6173,-104.5205 154.6173,-104.5205 152.9402,-109.2309 158.8566,-106.0299 151.2631,-113.9413 151.2631,-113.9413"/>
<text text-anchor="middle" x="149.3801" y="-91.0301" font-family="Helvetica,sans-Serif" font-size="10.00" fill="#000000">*</text>
<text text-anchor="middle" x="170.2613" y="-80.9412" font-family="Helvetica,sans-Serif" font-size="10.00" fill="#000000">0..1</text>
</g>
<!-- A6 -->
<g id="node7" class="node">
<title>A6</title>
<polygon fill="none" stroke="#000000" points="116.8359,-264 55.1641,-264 55.1641,-228 116.8359,-228 116.8359,-264"/>
<text text-anchor="middle" x="86" y="-243" font-family="Helvetica,sans-Serif" font-size="10.00" fill="#000000">Results</text>
</g>
<!-- A6&#45;&gt;A0JA1 -->
<g id="edge4" class="edge">
<title>A6&#45;&gt;A0JA1</title>
<path fill="none" stroke="#000000" stroke-dasharray="5,2" d="M117.0078,-246C119.4589,-246 121.91,-246 124.3611,-246"/>
<polygon fill="#000000" stroke="#000000" points="134.4377,-246 124.4378,-250.5001 129.4377,-246 124.4377,-246.0001 124.4377,-246.0001 124.4377,-246.0001 129.4377,-246 124.4377,-241.5001 134.4377,-246 134.4377,-246"/>
</g>
<!-- A0JA1&#45;&gt;A1 -->
<g id="edge3" class="edge">
<title>A0JA1&#45;&gt;A1</title>
<path fill="none" stroke="#000000" d="M135,-245.3614C135,-240.8439 135,-213.1625 135,-188.1622"/>
<polygon fill="#000000" stroke="#000000" points="135,-178.0489 139.5001,-188.0489 135,-183.0489 135.0001,-188.0489 135.0001,-188.0489 135.0001,-188.0489 135,-183.0489 130.5001,-188.049 135,-178.0489 135,-178.0489"/>
<text text-anchor="middle" x="143.4524" y="-193.1751" font-family="Helvetica,sans-Serif" font-size="10.00" fill="#000000">*</text>
</g>
</g>
</svg>
